<?xml version="1.0" encoding="UTF-8" standalone="no"?>
<!DOCTYPE svg PUBLIC "-//W3C//DTD SVG 20010904//EN"
              "http://www.w3.org/TR/2001/REC-SVG-20010904/DTD/svg10.dtd">

<svg xmlns="http://www.w3.org/2000/svg"
     width="3.55556in" height="3.48611in"
     viewBox="0 0 256 251">
  <path id="Selection"
        fill="none" stroke="black" stroke-width="1"
        d="M 0.00,0.00
           C 0.00,0.00 256.00,0.00 256.00,0.00
             256.00,0.00 256.00,251.00 256.00,251.00
             256.00,251.00 0.00,251.00 0.00,251.00
             0.00,251.00 0.00,0.00 0.00,0.00 Z
           M 151.00,37.00
           C 151.00,37.00 150.00,37.00 150.00,37.00
             150.00,37.00 151.00,38.00 151.00,38.00
             151.00,38.00 151.00,37.00 151.00,37.00 Z
           M 160.00,40.00
           C 160.00,40.00 159.00,40.00 159.00,40.00
             159.00,40.00 160.00,41.00 160.00,41.00
             160.00,41.00 160.00,40.00 160.00,40.00 Z
           M 163.00,41.00
           C 163.00,41.00 162.00,41.00 162.00,41.00
             162.00,41.00 163.00,42.00 163.00,42.00
             163.00,42.00 163.00,41.00 163.00,41.00 Z
           M 165.00,42.00
           C 165.00,42.00 164.00,42.00 164.00,42.00
             164.00,42.00 165.00,43.00 165.00,43.00
             165.00,43.00 165.00,42.00 165.00,42.00 Z
           M 173.00,46.00
           C 173.00,46.00 172.00,46.00 172.00,46.00
             172.00,46.00 173.00,47.00 173.00,47.00
             173.00,47.00 173.00,46.00 173.00,46.00 Z
           M 175.00,47.00
           C 175.00,47.00 174.00,47.00 174.00,47.00
             174.00,47.00 175.00,48.00 175.00,48.00
             175.00,48.00 175.00,47.00 175.00,47.00 Z
           M 178.00,49.00
           C 178.00,49.00 177.00,49.00 177.00,49.00
             177.00,49.00 178.00,50.00 178.00,50.00
             178.00,50.00 178.00,49.00 178.00,49.00 Z
           M 153.00,51.00
           C 146.48,53.01 147.48,55.90 142.00,58.57
             139.49,59.80 135.72,59.92 134.90,63.14
             134.43,64.96 135.33,67.33 136.01,69.00
             140.61,80.33 137.75,75.35 139.51,85.00
             140.46,90.20 140.49,94.26 134.00,89.87
             134.00,89.87 130.00,87.00 130.00,87.00
             126.71,102.28 121.67,82.25 111.11,88.17
             102.89,92.78 112.09,99.46 109.27,103.69
             107.59,106.22 101.03,106.93 98.00,108.12
             88.90,111.67 82.56,118.00 82.00,128.00
             90.14,126.86 93.62,120.85 98.99,120.39
             104.23,119.95 104.33,126.19 112.00,121.77
             116.41,119.24 120.11,114.52 124.00,111.21
             124.00,111.21 131.30,105.61 131.30,105.61
             133.77,102.68 133.40,99.09 136.30,96.56
             139.97,93.37 146.41,94.81 148.98,90.72
             150.51,88.30 149.67,84.37 150.34,81.00
             151.14,76.95 153.16,75.19 153.62,72.00
             153.62,72.00 153.00,51.00 153.00,51.00 Z
           M 181.00,51.00
           C 181.00,51.00 180.00,51.00 180.00,51.00
             180.00,51.00 181.00,52.00 181.00,52.00
             181.00,52.00 181.00,51.00 181.00,51.00 Z
           M 185.00,54.00
           C 185.00,54.00 184.00,54.00 184.00,54.00
             184.00,54.00 185.00,55.00 185.00,55.00
             185.00,55.00 185.00,54.00 185.00,54.00 Z
           M 186.00,55.00
           C 186.00,55.00 185.00,55.00 185.00,55.00
             185.00,55.00 186.00,56.00 186.00,56.00
             186.00,56.00 186.00,55.00 186.00,55.00 Z
           M 189.00,57.00
           C 189.00,57.00 188.00,57.00 188.00,57.00
             188.00,57.00 189.00,58.00 189.00,58.00
             189.00,58.00 189.00,57.00 189.00,57.00 Z
           M 190.00,58.00
           C 190.00,58.00 189.00,58.00 189.00,58.00
             189.00,58.00 190.00,59.00 190.00,59.00
             190.00,59.00 190.00,58.00 190.00,58.00 Z
           M 191.00,59.00
           C 191.00,59.00 190.00,59.00 190.00,59.00
             190.00,59.00 191.00,60.00 191.00,60.00
             191.00,60.00 191.00,59.00 191.00,59.00 Z
           M 192.00,60.00
           C 192.00,60.00 191.00,60.00 191.00,60.00
             191.00,60.00 192.00,61.00 192.00,61.00
             192.00,61.00 192.00,60.00 192.00,60.00 Z
           M 193.00,61.00
           C 193.00,61.00 192.00,61.00 192.00,61.00
             192.00,61.00 193.00,62.00 193.00,62.00
             193.00,62.00 193.00,61.00 193.00,61.00 Z
           M 194.00,62.00
           C 194.00,62.00 193.00,62.00 193.00,62.00
             193.00,62.00 194.00,63.00 194.00,63.00
             194.00,63.00 194.00,62.00 194.00,62.00 Z
           M 195.00,63.00
           C 195.00,63.00 194.00,63.00 194.00,63.00
             194.00,63.00 195.00,64.00 195.00,64.00
             195.00,64.00 195.00,63.00 195.00,63.00 Z
           M 196.00,64.00
           C 196.00,64.00 195.00,64.00 195.00,64.00
             195.00,64.00 196.00,65.00 196.00,65.00
             196.00,65.00 196.00,64.00 196.00,64.00 Z
           M 197.00,65.00
           C 197.00,65.00 196.00,65.00 196.00,65.00
             196.00,65.00 197.00,66.00 197.00,66.00
             197.00,66.00 197.00,65.00 197.00,65.00 Z
           M 198.00,66.00
           C 198.00,66.00 197.00,66.00 197.00,66.00
             197.00,66.00 198.00,67.00 198.00,67.00
             198.00,67.00 198.00,66.00 198.00,66.00 Z
           M 56.00,68.00
           C 56.00,68.00 55.00,68.00 55.00,68.00
             55.00,68.00 56.00,69.00 56.00,69.00
             56.00,69.00 56.00,68.00 56.00,68.00 Z
           M 200.00,69.00
           C 200.00,69.00 199.00,69.00 199.00,69.00
             199.00,69.00 200.00,70.00 200.00,70.00
             200.00,70.00 200.00,69.00 200.00,69.00 Z
           M 201.00,70.00
           C 201.00,70.00 200.00,70.00 200.00,70.00
             200.00,70.00 201.00,71.00 201.00,71.00
             201.00,71.00 201.00,70.00 201.00,70.00 Z
           M 110.00,72.00
           C 102.34,70.20 92.29,76.07 86.00,80.24
             83.14,82.15 79.46,85.00 80.66,88.96
             81.05,90.27 82.02,91.48 83.15,92.24
             87.46,95.19 91.14,90.85 93.99,88.00
             93.99,88.00 100.28,81.32 100.28,81.32
             104.71,77.11 105.79,77.74 110.00,72.00 Z
           M 52.00,73.00
           C 52.00,73.00 51.00,73.00 51.00,73.00
             51.00,73.00 52.00,74.00 52.00,74.00
             52.00,74.00 52.00,73.00 52.00,73.00 Z
           M 203.00,73.00
           C 203.00,73.00 202.00,73.00 202.00,73.00
             202.00,73.00 203.00,74.00 203.00,74.00
             203.00,74.00 203.00,73.00 203.00,73.00 Z
           M 51.00,74.00
           C 38.23,84.53 34.07,100.15 32.91,116.00
             32.91,116.00 32.18,123.00 32.18,123.00
             32.18,123.00 33.01,134.00 33.01,134.00
             33.19,139.93 34.52,143.45 35.54,149.00
             35.96,151.28 35.87,154.58 37.60,156.26
             39.46,158.08 42.59,157.94 45.00,158.00
             41.83,148.48 38.24,136.02 38.01,126.00
             37.68,111.47 41.88,101.24 46.46,88.00
             46.46,88.00 51.00,74.00 51.00,74.00 Z
           M 213.00,90.00
           C 211.96,93.84 215.99,105.98 216.70,111.00
             216.70,111.00 217.39,125.00 217.39,125.00
             217.39,125.00 216.50,131.85 216.50,131.85
             216.92,134.56 218.80,134.61 221.00,135.00
             221.00,135.00 220.00,123.00 220.00,123.00
             219.84,108.96 217.34,103.02 213.00,90.00 Z
           M 23.00,160.00
           C 26.55,153.09 29.90,156.30 31.31,152.69
             31.94,151.07 30.64,136.87 23.10,139.76
             21.11,140.52 19.82,142.13 19.01,144.04
             18.46,145.32 18.23,146.61 18.19,148.00
             18.15,149.76 18.66,152.30 19.17,154.00
             20.14,157.17 20.66,157.77 23.00,160.00 Z
           M 229.00,140.00
           C 229.00,140.00 230.00,146.00 230.00,146.00
             230.70,142.74 230.92,142.75 229.00,140.00 Z
           M 117.00,141.00
           C 117.00,141.00 115.00,141.00 115.00,141.00
             115.00,141.00 114.00,147.00 114.00,147.00
             114.00,147.00 118.00,142.00 118.00,142.00
             118.00,142.00 117.00,141.00 117.00,141.00 Z
           M 94.00,173.00
           C 93.01,171.21 92.43,169.88 90.78,168.51
             87.46,165.78 79.58,165.80 77.71,170.23
             76.47,172.74 77.23,178.31 77.71,181.00
             78.41,183.72 79.30,187.26 82.21,188.36
             84.24,189.13 96.47,186.02 99.00,185.13
             101.38,184.30 103.49,182.76 106.00,182.43
             109.44,181.75 111.73,183.42 117.00,182.43
             123.61,181.42 126.81,178.66 130.00,178.13
             134.38,177.41 135.23,179.77 143.00,177.57
             145.32,176.91 147.77,176.15 149.59,174.49
             151.54,172.71 152.30,169.98 154.27,169.62
             157.19,169.08 160.50,174.42 166.95,172.57
             171.98,171.12 171.26,166.18 174.27,165.62
             176.31,165.24 178.33,167.50 181.00,168.41
             187.27,170.53 191.36,167.55 190.83,161.00
             190.49,156.91 189.62,149.47 184.94,148.33
             181.75,147.55 178.09,148.71 176.07,151.27
             174.93,152.71 174.04,155.77 171.87,155.81
             168.78,155.86 167.39,150.42 161.02,151.98
             154.87,153.49 155.30,158.89 151.96,158.96
             149.71,159.01 148.33,156.01 144.96,155.40
             143.14,155.07 140.78,155.72 139.00,156.12
             126.92,158.84 126.94,162.36 126.00,174.00
             123.54,173.26 122.40,173.05 120.72,170.85
             119.07,168.69 116.32,156.55 111.00,166.00
             100.34,161.14 99.55,162.36 96.00,173.00
             96.00,173.00 94.00,173.00 94.00,173.00 Z
           M 115.00,151.00
           C 108.34,147.51 100.66,150.66 97.00,157.00
             102.89,156.47 110.95,155.46 115.00,151.00 Z
           M 219.00,171.00
           C 215.88,174.62 214.76,180.77 210.27,182.49
             207.04,183.73 199.53,178.80 196.00,177.80
             192.52,176.81 183.77,177.93 180.00,178.62
             180.00,178.62 169.00,181.19 169.00,181.19
             169.00,181.19 119.00,191.58 119.00,191.58
             105.97,194.44 94.54,196.01 82.00,201.00
             82.49,202.53 82.44,203.12 83.59,204.47
             87.00,208.47 101.57,212.56 107.00,213.87
             125.47,218.32 147.56,216.03 165.00,208.57
             165.00,208.57 189.00,196.00 189.00,196.00
             187.29,204.38 184.44,206.13 191.00,210.00
             195.80,201.90 200.86,202.15 207.90,196.25
             214.99,190.31 212.71,187.18 225.00,180.00
             225.00,180.00 219.00,171.00 219.00,171.00 Z
           M 32.00,181.00
           C 32.00,181.00 30.00,181.00 30.00,181.00
             30.00,181.00 23.00,191.00 23.00,191.00
             33.26,192.19 31.50,197.81 38.09,201.91
             41.43,204.00 47.28,204.37 49.79,206.70
             51.61,208.75 50.70,210.65 49.79,213.00
             59.86,212.78 68.12,208.90 73.00,200.00
             64.88,200.00 46.21,199.91 40.21,194.58
             37.35,192.05 34.11,184.71 32.00,181.00 Z
           M 191.00,193.77
           C 194.12,188.65 197.31,184.69 203.00,182.00
             203.00,182.00 205.52,187.00 205.52,187.00
             209.92,196.52 200.48,193.85 197.00,193.77
             195.02,193.37 192.97,193.76 191.00,193.77 Z
           M 238.00,184.00
           C 232.68,182.55 229.95,182.75 231.00,189.00
             231.00,189.00 238.00,184.00 238.00,184.00 Z
           M 16.00,194.00
           C 16.00,194.00 8.00,194.00 8.00,194.00
             9.32,198.37 10.06,198.81 14.00,201.00
             14.00,201.00 16.00,194.00 16.00,194.00 Z
           M 14.00,213.00
           C 10.04,217.76 11.63,221.31 18.00,220.00
             18.00,220.00 14.00,213.00 14.00,213.00 Z
           M 229.00,218.00
           C 229.00,218.00 224.00,222.00 224.00,222.00
             224.00,222.00 229.00,223.00 229.00,223.00
             229.00,223.00 229.00,218.00 229.00,218.00 Z" />
</svg>
