<?xml version="1.0" standalone="no"?>
<!DOCTYPE svg PUBLIC "-//W3C//DTD SVG 20010904//EN"
 "http://www.w3.org/TR/2001/REC-SVG-20010904/DTD/svg10.dtd">
<svg version="1.0" xmlns="http://www.w3.org/2000/svg"
 width="256.000000pt" height="251.000000pt" viewBox="0 0 256.000000 251.000000"
 preserveAspectRatio="xMidYMid meet">

<g transform="translate(0.000000,251.000000) scale(0.100000,-0.100000)"
fill="#000000" stroke="none">
<path d="M1165 2174 c-168 -26 -292 -69 -409 -145 -344 -221 -494 -615 -383
-1005 16 -59 27 -80 41 -82 16 -3 18 0 12 19 -46 160 -49 177 -49 304 -1 141
13 213 63 336 102 247 335 447 607 521 116 31 336 31 452 0 361 -98 619 -385
671 -745 6 -42 10 -104 9 -137 -1 -33 2 -60 7 -60 14 0 17 147 4 230 -30 186
-111 341 -255 485 -142 143 -283 222 -467 261 -75 15 -249 26 -303 18z"/>
<path d="M1484 1974 c-30 -28 -32 -32 -10 -18 22 14 31 15 34 6 2 -8 11 -4 23
12 39 50 8 50 -47 0z"/>
<path d="M1375 1859 c-4 -6 -5 -13 -2 -16 7 -7 27 6 27 18 0 12 -17 12 -25 -2z"/>
<path d="M1455 1818 c-24 -59 -32 -167 -14 -179 22 -14 29 -11 29 14 0 55 23
137 38 137 13 0 13 3 4 12 -7 7 -12 22 -12 35 0 38 -27 26 -45 -19z"/>
<path d="M1016 1775 c-11 -8 -16 -15 -10 -15 5 0 18 7 28 15 11 8 16 15 10 15
-5 0 -18 -7 -28 -15z"/>
<path d="M1538 1783 c7 -3 16 -2 19 1 4 3 -2 6 -13 5 -11 0 -14 -3 -6 -6z"/>
<path d="M1103 1594 c-9 -25 10 -48 50 -59 50 -14 52 -19 28 -58 -23 -38 -42
-50 -66 -41 -12 5 -15 -4 -15 -49 0 -31 4 -58 10 -62 15 -9 88 63 141 139 50
71 63 102 31 73 -40 -36 -107 -6 -100 44 4 28 3 29 -34 29 -27 0 -41 -5 -45
-16z"/>
<path d="M223 1104 c-39 -30 -42 -53 -10 -81 26 -24 87 -56 94 -50 2 3 -3 29
-11 58 -9 29 -16 63 -16 76 0 30 -17 29 -57 -3z"/>
<path d="M1842 1033 c-14 -3 -21 -10 -19 -17 3 -7 11 -47 17 -89 15 -91 26
-109 58 -96 18 7 21 13 16 36 -4 16 -9 32 -12 37 -3 5 -7 27 -8 50 -5 55 -13
86 -22 85 -4 -1 -17 -4 -30 -6z"/>
<path d="M1762 1011 c-11 -6 -11 -17 -4 -45 9 -31 8 -36 -6 -36 -9 0 -27 -3
-38 -6 -18 -5 -23 0 -31 33 -5 24 -15 39 -27 41 -30 6 -39 -11 -28 -54 11 -43
25 -155 17 -139 -3 6 -13 49 -23 95 -16 74 -20 85 -37 82 -32 -6 -38 -18 -26
-53 6 -18 10 -33 9 -34 -2 -1 -20 -5 -40 -8 -36 -5 -37 -5 -43 34 -6 32 -11
39 -30 39 -13 0 -26 -4 -29 -9 -5 -7 8 -86 29 -178 4 -16 13 -23 29 -23 32 0
35 6 25 48 -4 20 -7 37 -6 38 1 1 18 5 38 9 37 7 37 7 44 -34 6 -37 9 -41 28
-35 23 8 49 12 81 13 16 1 18 7 13 46 -6 43 -5 45 18 47 14 0 30 1 37 2 7 1
16 -16 21 -36 9 -38 20 -45 46 -29 12 8 12 23 -4 105 -18 98 -27 110 -63 87z"/>
<path d="M1321 925 c-52 -28 -67 -105 -31 -155 23 -33 52 -45 95 -41 39 4 55
18 55 47 0 27 -12 31 -29 10 -16 -19 -59 -8 -77 20 -29 43 10 93 62 80 26 -7
30 4 14 35 -12 22 -52 24 -89 4z"/>
<path d="M1138 893 c-20 -5 -22 -22 -9 -73 24 -93 21 -94 -25 -17 -40 67 -50
77 -74 77 -36 0 -40 -6 -56 -99 -20 -114 -19 -131 10 -131 18 0 26 6 28 22 4
31 73 48 92 23 11 -15 19 -16 72 -5 32 6 69 14 82 16 17 4 22 10 20 27 -2 18
-9 22 -40 21 -31 -1 -38 2 -38 18 0 10 -6 21 -13 24 -10 4 -13 19 -9 54 5 52
2 54 -40 43z m-68 -135 c0 -5 -11 -8 -25 -8 -27 0 -28 2 -18 50 l6 33 18 -34
c10 -19 18 -37 19 -41z m55 -28 c3 -5 1 -10 -4 -10 -6 0 -11 5 -11 10 0 6 2
10 4 10 3 0 8 -4 11 -10z"/>
<path d="M817 840 c-27 -5 -51 -11 -54 -14 -3 -3 0 -28 6 -55 6 -28 16 -73 22
-101 12 -57 19 -59 92 -34 71 24 91 84 37 111 -14 7 -19 13 -12 13 22 0 14 57
-10 74 -12 9 -25 15 -28 15 -3 -1 -27 -5 -53 -9z m61 -52 c3 -18 -32 -43 -48
-33 -14 9 -12 42 3 48 21 9 42 2 45 -15z m22 -74 c0 -3 -5 -14 -10 -25 -15
-28 -47 -24 -52 6 -5 23 -2 25 28 25 19 0 34 -3 34 -6z"/>
<path d="M1925 659 c-173 -176 -396 -270 -643 -271 -140 0 -245 20 -359 68
-109 47 -144 39 -43 -8 149 -71 359 -103 522 -79 116 16 253 64 353 123 116
69 282 228 237 228 -4 0 -34 -27 -67 -61z"/>
<path d="M1976 593 c-48 -46 -87 -86 -85 -88 8 -7 111 35 155 62 46 29 53 50
31 90 -12 20 -15 18 -101 -64z"/>
</g>
</svg>
